<?xml version="1.0" encoding="UTF-8"?><svg id="Layer_1" xmlns="http://www.w3.org/2000/svg" viewBox="0 0 1920 1080"><defs><style>.cls-1{fill:#fff;stroke-width:0px;}</style></defs><path class="cls-1" d="m586.02,645.41l-.2-3.27c-.25-4.19-1.79-5.95-5.06-5.75l-4.45.27.94,15.51,3.61-.22c3.44-.2,5.44-1.84,5.16-6.54Zm2.55,26.78l-.31-5.12c-.33-5.45-2.2-7.02-6.39-6.76l-4.11.25,1.1,18.02,5.28-.32c3.1-.18,4.69-1.71,4.43-6.07Zm0,0l-.31-5.12c-.33-5.45-2.2-7.02-6.39-6.76l-4.11.25,1.1,18.02,5.28-.32c3.1-.18,4.69-1.71,4.43-6.07Zm-2.55-26.78l-.2-3.27c-.25-4.19-1.79-5.95-5.06-5.75l-4.45.27.94,15.51,3.61-.22c3.44-.2,5.44-1.84,5.16-6.54Zm0,0l-.2-3.27c-.25-4.19-1.79-5.95-5.06-5.75l-4.45.27.94,15.51,3.61-.22c3.44-.2,5.44-1.84,5.16-6.54Zm2.55,26.78l-.31-5.12c-.33-5.45-2.2-7.02-6.39-6.76l-4.11.25,1.1,18.02,5.28-.32c3.1-.18,4.69-1.71,4.43-6.07Zm0,0l-.31-5.12c-.33-5.45-2.2-7.02-6.39-6.76l-4.11.25,1.1,18.02,5.28-.32c3.1-.18,4.69-1.71,4.43-6.07Zm-2.55-26.78l-.2-3.27c-.25-4.19-1.79-5.95-5.06-5.75l-4.45.27.94,15.51,3.61-.22c3.44-.2,5.44-1.84,5.16-6.54Zm0,0l-.2-3.27c-.25-4.19-1.79-5.95-5.06-5.75l-4.45.27.94,15.51,3.61-.22c3.44-.2,5.44-1.84,5.16-6.54Zm2.55,26.78l-.31-5.12c-.33-5.45-2.2-7.02-6.39-6.76l-4.11.25,1.1,18.02,5.28-.32c3.1-.18,4.69-1.71,4.43-6.07Zm0,0l-.31-5.12c-.33-5.45-2.2-7.02-6.39-6.76l-4.11.25,1.1,18.02,5.28-.32c3.1-.18,4.69-1.71,4.43-6.07Zm-2.55-26.78l-.2-3.27c-.25-4.19-1.79-5.95-5.06-5.75l-4.45.27.94,15.51,3.61-.22c3.44-.2,5.44-1.84,5.16-6.54Zm0,0l-.2-3.27c-.25-4.19-1.79-5.95-5.06-5.75l-4.45.27.94,15.51,3.61-.22c3.44-.2,5.44-1.84,5.16-6.54Zm2.55,26.78l-.31-5.12c-.33-5.45-2.2-7.02-6.39-6.76l-4.11.25,1.1,18.02,5.28-.32c3.1-.18,4.69-1.71,4.43-6.07Zm0,0l-.31-5.12c-.33-5.45-2.2-7.02-6.39-6.76l-4.11.25,1.1,18.02,5.28-.32c3.1-.18,4.69-1.71,4.43-6.07Zm-2.55-26.78l-.2-3.27c-.25-4.19-1.79-5.95-5.06-5.75l-4.45.27.94,15.51,3.61-.22c3.44-.2,5.44-1.84,5.16-6.54Zm0,0l-.2-3.27c-.25-4.19-1.79-5.95-5.06-5.75l-4.45.27.94,15.51,3.61-.22c3.44-.2,5.44-1.84,5.16-6.54Zm2.55,26.78l-.31-5.12c-.33-5.45-2.2-7.02-6.39-6.76l-4.11.25,1.1,18.02,5.28-.32c3.1-.18,4.69-1.71,4.43-6.07Zm448.58,4.02l-12.37,26.61,7.95,2.44,4.58-29-.16-.05Zm0,0l-12.37,26.61,7.95,2.44,4.58-29-.16-.05Zm-448.58-4.02l-.31-5.12c-.33-5.45-2.2-7.02-6.39-6.76l-4.11.25,1.1,18.02,5.28-.32c3.1-.18,4.69-1.71,4.43-6.07Zm-2.55-26.78l-.2-3.27c-.25-4.19-1.79-5.95-5.06-5.75l-4.45.27.94,15.51,3.61-.22c3.44-.2,5.44-1.84,5.16-6.54Zm0,0l-.2-3.27c-.25-4.19-1.79-5.95-5.06-5.75l-4.45.27.94,15.51,3.61-.22c3.44-.2,5.44-1.84,5.16-6.54Zm2.55,26.78l-.31-5.12c-.33-5.45-2.2-7.02-6.39-6.76l-4.11.25,1.1,18.02,5.28-.32c3.1-.18,4.69-1.71,4.43-6.07Zm448.58,4.02l-12.37,26.61,7.95,2.44,4.58-29-.16-.05Zm0,0l-12.37,26.61,7.95,2.44,4.58-29-.16-.05Zm-448.58-4.02l-.31-5.12c-.33-5.45-2.2-7.02-6.39-6.76l-4.11.25,1.1,18.02,5.28-.32c3.1-.18,4.69-1.71,4.43-6.07Zm-2.55-26.78l-.2-3.27c-.25-4.19-1.79-5.95-5.06-5.75l-4.45.27.94,15.51,3.61-.22c3.44-.2,5.44-1.84,5.16-6.54Zm0,0l-.2-3.27c-.25-4.19-1.79-5.95-5.06-5.75l-4.45.27.94,15.51,3.61-.22c3.44-.2,5.44-1.84,5.16-6.54Zm2.55,26.78l-.31-5.12c-.33-5.45-2.2-7.02-6.39-6.76l-4.11.25,1.1,18.02,5.28-.32c3.1-.18,4.69-1.71,4.43-6.07Zm448.58,4.02l-12.37,26.61,7.95,2.44,4.58-29-.16-.05Zm176.85,43.53c-2.88-.62-5.02.56-5.89,4.67l-6.7,31.38c-.88,4.11.6,6.05,3.47,6.67,2.88.61,5.02-.56,5.89-4.67l6.7-31.38c.88-4.11-.6-6.06-3.47-6.67Zm0,0c-2.88-.62-5.02.56-5.89,4.67l-6.7,31.38c-.88,4.11.6,6.05,3.47,6.67,2.88.61,5.02-.56,5.89-4.67l6.7-31.38c.88-4.11-.6-6.06-3.47-6.67Zm-176.85-43.53l-12.37,26.61,7.95,2.44,4.58-29-.16-.05Zm-448.58-4.02l-.31-5.12c-.33-5.45-2.2-7.02-6.39-6.76l-4.11.25,1.1,18.02,5.28-.32c3.1-.18,4.69-1.71,4.43-6.07Zm-2.55-26.78l-.2-3.27c-.25-4.19-1.79-5.95-5.06-5.75l-4.45.27.94,15.51,3.61-.22c3.44-.2,5.44-1.84,5.16-6.54Zm0,0l-.2-3.27c-.25-4.19-1.79-5.95-5.06-5.75l-4.45.27.94,15.51,3.61-.22c3.44-.2,5.44-1.84,5.16-6.54Zm2.55,26.78l-.31-5.12c-.33-5.45-2.2-7.02-6.39-6.76l-4.11.25,1.1,18.02,5.28-.32c3.1-.18,4.69-1.71,4.43-6.07Zm448.58,4.02l-12.37,26.61,7.95,2.44,4.58-29-.16-.05Zm176.85,43.53c-2.88-.62-5.02.56-5.89,4.67l-6.7,31.38c-.88,4.11.6,6.05,3.47,6.67,2.88.61,5.02-.56,5.89-4.67l6.7-31.38c.88-4.11-.6-6.06-3.47-6.67Zm187.92,30.91h-.16s-6.26,28.66-6.26,28.66l8.29.64-1.87-29.3Zm0,0h-.16s-6.26,28.66-6.26,28.66l8.29.64-1.87-29.3Zm-187.92-30.91c-2.88-.62-5.02.56-5.89,4.67l-6.7,31.38c-.88,4.11.6,6.05,3.47,6.67,2.88.61,5.02-.56,5.89-4.67l6.7-31.38c.88-4.11-.6-6.06-3.47-6.67Zm-176.85-43.53l-12.37,26.61,7.95,2.44,4.58-29-.16-.05Zm-448.58-4.02l-.31-5.12c-.33-5.45-2.2-7.02-6.39-6.76l-4.11.25,1.1,18.02,5.28-.32c3.1-.18,4.69-1.71,4.43-6.07Zm-2.55-26.78l-.2-3.27c-.25-4.19-1.79-5.95-5.06-5.75l-4.45.27.94,15.51,3.61-.22c3.44-.2,5.44-1.84,5.16-6.54Zm0,0l-.2-3.27c-.25-4.19-1.79-5.95-5.06-5.75l-4.45.27.94,15.51,3.61-.22c3.44-.2,5.44-1.84,5.16-6.54Zm2.55,26.78l-.31-5.12c-.33-5.45-2.2-7.02-6.39-6.76l-4.11.25,1.1,18.02,5.28-.32c3.1-.18,4.69-1.71,4.43-6.07Zm448.58,4.02l-12.37,26.61,7.95,2.44,4.58-29-.16-.05Zm176.85,43.53c-2.88-.62-5.02.56-5.89,4.67l-6.7,31.38c-.88,4.11.6,6.05,3.47,6.67,2.88.61,5.02-.56,5.89-4.67l6.7-31.38c.88-4.11-.6-6.06-3.47-6.67Zm187.92,30.91h-.16s-6.26,28.66-6.26,28.66l8.29.64-1.87-29.3Zm54.07.95l-4.2-.1-.41,16.79,3.36.09c3.44.08,5.58-1.38,5.69-6.08l.11-4.54c.11-4.19-1.28-6.08-4.55-6.16Zm0,0l-4.2-.1-.41,16.79,3.36.09c3.44.08,5.58-1.38,5.69-6.08l.11-4.54c.11-4.19-1.28-6.08-4.55-6.16Zm-54.07-.95h-.16s-6.26,28.66-6.26,28.66l8.29.64-1.87-29.3Zm-187.92-30.91c-2.88-.62-5.02.56-5.89,4.67l-6.7,31.38c-.88,4.11.6,6.05,3.47,6.67,2.88.61,5.02-.56,5.89-4.67l6.7-31.38c.88-4.11-.6-6.06-3.47-6.67Zm-176.85-43.53l-12.37,26.61,7.95,2.44,4.58-29-.16-.05Zm-448.58-4.02l-.31-5.12c-.33-5.45-2.2-7.02-6.39-6.76l-4.11.25,1.1,18.02,5.28-.32c3.1-.18,4.69-1.71,4.43-6.07Zm-2.55-26.78l-.2-3.27c-.25-4.19-1.79-5.95-5.06-5.75l-4.45.27.94,15.51,3.61-.22c3.44-.2,5.44-1.84,5.16-6.54Zm741.3,53.98s-122.1-30.9-147.1-33.84c0,0-6.89-67.36-8.82-150.04-1.44-61.78,30.88-155.75,70.6-233.06,0,0,76.18-23.57,67.02-87.16-9.15-63.59-116.99,15.26-106.82,67.16,0,0-31.54,37.64-75.28,30.51,0,0,34.58-70.28-14.75-121.37-49.35-51.07-118.53-3.26-130.24,48.11,0,0-13.23,65.11,26.96,95.64,0,0,13.23,11.2,35.11,19.33,0,0-19.85,33.08-81.4,25.95,0,0,56.97,72.75,134.8-18.31,0,0,47.31,4.58,84.95-22.88-1.1,1.73-75.71,117.59-67.97,254.65,0,0,1.25,59.95-1.11,76.86,0,0-130.29-25.62-163.71-26.73,0,0,31.19-64.6,108.02-73.51,0,0-95.77-46.76-177.07,63.49,0,0-321.47-35.49-567.03,43.72,0,0-3.16-141,45.95-308.93,0,0,160.6-27.45,183.78-156.85,19.01-106.15-184.57-46.43-252.44,118.81,0,0-89.64,13.43-204.1-28.49,0,0,41.91,104.78,188.63,87.06,0,0-40.31,175.7-35.48,314.35,0,0-126.85,55.23-137.13,141.58-10.28,86.37,58.6,79.17,58.6,79.17,0,0,127.49-9.26,152.16-168.61,0,0,269.55-54.26,543.16-16.01,0,0,13.22,145.63,180.92,135.32,0,0,75.03-11.77,113.28-76.5,0,0,500.72,168.83,682.52-159.75-2.35,2.01-191.72,162.2-506.01,80.33Zm-245.83-414.12c-23.32-9.73-50.63-62.1-22.54-80.06,23.7-15.16,34.97,12.04,34.97,12.04,8.55,39.25-12.43,68.02-12.43,68.02Zm-606.38-110.61s22.59-6.84,28.4,11.88c5.79,18.7-42.17,94.03-125.29,106.37,0,0,22.42-87.97,96.89-118.25ZM197.43,856.26c-45.18,33.97-56.36-9.46-56.36-9.46-12.47-52.92,99.8-92.06,99.8-92.06-12.47,80.87-43.44,101.52-43.44,101.52Zm198.32-151.4l-9.15,1.22-6.69-49.95-9.57,1.28-1.11-8.33,28.3-3.78,1.12,8.32-9.58,1.28,6.68,49.96Zm53.35-6.49l-2.99-26.3-9.85,1.12,2.99,26.29-9.18,1.05-6.64-58.43,9.19-1.04,2.7,23.79,9.85-1.12-2.71-23.79,9.19-1.04,6.63,58.42-9.18,1.05Zm36.38-3.85l-5.5-58.54,25.09-2.36.79,8.36-15.89,1.5,1.45,15.47,12.63-1.19.79,8.37-12.63,1.18,1.69,17.98,15.89-1.49.78,8.36-25.09,2.36Zm99.17-7.87l-14.51.88-3.56-58.7,13.92-.84c9.56-.58,13.94,3.62,14.49,12.67l.14,2.35c.37,6.04-1.25,9.92-5.26,11.85v.17c5.06,1.37,7.25,5.62,7.63,11.82l.3,5.03c.55,9.06-3.93,14.21-13.15,14.77Zm39.77-2.09l-2.23-58.76,25.18-.96.32,8.4-15.95.6.59,15.53,12.68-.48.32,8.4-12.68.48.69,18.04,15.94-.6.32,8.39-25.18.96Zm63.06-.94c-9.07.12-13.68-5.19-13.8-14.6l-.05-3.36,8.74-.12.05,4.04c.06,4.2,1.93,5.68,4.87,5.64,2.94-.03,4.76-1.57,4.71-5.94-.07-4.87-1.96-7.95-8.08-13.17-7.81-6.7-10.4-11.45-10.49-18.17-.12-9.24,4.6-14.68,13.59-14.8,8.98-.12,13.51,5.2,13.63,14.61l.03,2.43-8.73.12-.04-3.03c-.06-4.2-1.76-5.77-4.7-5.73-2.94.04-4.6,1.66-4.54,5.69.05,4.28,2.03,7.36,8.14,12.58,7.82,6.7,10.32,11.37,10.42,18.68.12,9.57-4.68,15.01-13.75,15.13Zm66.43-51l-9.66-.14-.74,50.39-9.24-.14.74-50.39-9.66-.14.12-8.4,28.56.42-.12,8.4Zm87.61,9.74l-.45,6.2-8.71-.63.49-6.79c.28-3.85-1.44-5.58-4.21-5.78-2.76-.2-4.72,1.26-5,5.11l-2.39,32.76c-.28,3.85,1.45,5.5,4.22,5.7,2.76.2,4.72-1.18,5-5.03l.65-8.96,8.71.63-.6,8.3c-.66,9.04-5.74,14.06-14.62,13.42-8.89-.65-13.19-6.35-12.53-15.4l2.3-31.51c.66-9.04,5.74-14.06,14.62-13.42,8.88.65,13.18,6.35,12.52,15.4Zm46.57,50.37l-24.28-2.84,6.83-58.41,9.18,1.08-5.86,50.06,15.1,1.77-.97,8.34Zm146.52-28.02l11.97,3.67-8.07,59.03-8.84-2.7,1.82-11.66-.05.16-10.04-3.08-4.98,10.51-8.19-2.51,26.38-53.42Zm-73.48-19.57l12.84,2.99-3.82,42.32.16.04,15.28-39.66,12.84,3-13.34,57.27-8.51-1.98,10.11-43.37-.17-.03-16.64,41.83-7.53-1.75,3.55-44.89-.16-.03-10.1,43.36-7.85-1.83,13.34-57.27Zm-48.74,51.16l9.46-58.03,9.12,1.49-9.47,58.03-9.11-1.49Zm98.85,102.77c-39.79,11.13-63.02-16.88-69.38-25.78-6.37-8.92-12.76-27.68-15.94-44.38l145.96,29.41s-20.85,29.61-60.64,40.75Zm86.35-107.07l-9.29-2.65-13.78,48.48-8.89-2.53,13.78-48.47-9.29-2.64,2.29-8.08,27.47,7.81-2.29,8.08Zm47.29,12.52l-15.45-4.01-3.9,15.04,12.28,3.19-2.11,8.13-12.28-3.19-4.54,17.49,15.45,4.01-2.11,8.13-24.39-6.33,14.77-56.92,24.39,6.33-2.11,8.13Zm81.51,24.39l-6.46,30.23c-1.96,9.2-7.93,13.43-16.8,11.53-8.87-1.89-12.6-8.18-10.64-17.38l6.46-30.24c1.96-9.2,7.93-13.42,16.8-11.53,8.87,1.9,12.6,8.19,10.64,17.39Zm45.15,54.17l-9.34-1.68-3.28-44.21-.16-.03-7.64,42.23-8.1-1.46,10.46-57.86,11.41,2.06,2.58,36.23.17.03,6.26-34.63,8.1,1.46-10.46,57.86Zm92.19-37.8l-15.84-1.91-1.86,15.43,12.59,1.52-1,8.33-12.6-1.51-2.16,17.92,15.85,1.91-1.01,8.34-25.02-3.01,7.04-58.38,25.02,3.02-1.01,8.34Zm41.33,54.31l-.78-11.77v.17s-10.48-.81-10.48-.81l-2.56,11.34-8.54-.65,14.06-57.9,12.48.97,5.03,59.36-9.21-.71Zm64.15-14.73l-.26,10.33c-.07,2.86-.04,4.96.83,7.16l-9.4-.23c-.47-1.52-.78-2.45-.66-7.24l.26-10.75c.13-5.45-1.42-7.26-5.62-7.36l-3.19-.08-.61,25.19-9.24-.22,1.44-58.78,13.69.33c9.57.24,13.58,4.79,13.35,13.86l-.09,3.61c-.14,6.04-2.17,9.86-6.33,11.44v.17c4.58,1.54,5.99,5.94,5.83,12.57Zm45.18,16.67l-9.23.34-1.86-50.36-9.65.36-.31-8.4,28.54-1.05.31,8.39-9.65.36,1.85,50.36Zm56.64-4.61l-3.05-26.29-9.85,1.15,3.05,26.28-9.17,1.06-6.79-58.4,9.18-1.06,2.76,23.77,9.85-1.14-2.76-23.78,9.17-1.06,6.79,58.4-9.18,1.07Zm-115.04-45.32l-4.2-.1-.41,16.79,3.36.09c3.44.08,5.58-1.38,5.69-6.08l.11-4.54c.11-4.19-1.28-6.08-4.55-6.16Zm-54.23-.96l-6.26,28.67,8.29.64-1.87-29.3h-.16Zm-187.76-30.9c-2.88-.62-5.02.56-5.89,4.67l-6.7,31.38c-.88,4.11.6,6.05,3.47,6.67,2.88.61,5.02-.56,5.89-4.67l6.7-31.38c.88-4.11-.6-6.06-3.47-6.67Zm-176.69-43.48l-.16-.05-12.37,26.61,7.95,2.44,4.58-29Zm-449.05-9.19c-.33-5.45-2.2-7.02-6.39-6.76l-4.11.25,1.1,18.02,5.28-.32c3.1-.18,4.69-1.71,4.43-6.07l-.31-5.12Zm-2.24-21.66l-.2-3.27c-.25-4.19-1.79-5.95-5.06-5.75l-4.45.27.94,15.51,3.61-.22c3.44-.2,5.44-1.84,5.16-6.54Zm0,0l-.2-3.27c-.25-4.19-1.79-5.95-5.06-5.75l-4.45.27.94,15.51,3.61-.22c3.44-.2,5.44-1.84,5.16-6.54Zm2.55,26.78l-.31-5.12c-.33-5.45-2.2-7.02-6.39-6.76l-4.11.25,1.1,18.02,5.28-.32c3.1-.18,4.69-1.71,4.43-6.07Zm448.58,4.02l-12.37,26.61,7.95,2.44,4.58-29-.16-.05Zm176.85,43.53c-2.88-.62-5.02.56-5.89,4.67l-6.7,31.38c-.88,4.11.6,6.05,3.47,6.67,2.88.61,5.02-.56,5.89-4.67l6.7-31.38c.88-4.11-.6-6.06-3.47-6.67Zm187.92,30.91h-.16s-6.26,28.66-6.26,28.66l8.29.64-1.87-29.3Zm54.07.95l-4.2-.1-.41,16.79,3.36.09c3.44.08,5.58-1.38,5.69-6.08l.11-4.54c.11-4.19-1.28-6.08-4.55-6.16Zm0,0l-4.2-.1-.41,16.79,3.36.09c3.44.08,5.58-1.38,5.69-6.08l.11-4.54c.11-4.19-1.28-6.08-4.55-6.16Zm-54.07-.95h-.16s-6.26,28.66-6.26,28.66l8.29.64-1.87-29.3Zm-187.92-30.91c-2.88-.62-5.02.56-5.89,4.67l-6.7,31.38c-.88,4.11.6,6.05,3.47,6.67,2.88.61,5.02-.56,5.89-4.67l6.7-31.38c.88-4.11-.6-6.06-3.47-6.67Zm-176.85-43.53l-12.37,26.61,7.95,2.44,4.58-29-.16-.05Zm-448.58-4.02l-.31-5.12c-.33-5.45-2.2-7.02-6.39-6.76l-4.11.25,1.1,18.02,5.28-.32c3.1-.18,4.69-1.71,4.43-6.07Zm-2.55-26.78l-.2-3.27c-.25-4.19-1.79-5.95-5.06-5.75l-4.45.27.94,15.51,3.61-.22c3.44-.2,5.44-1.84,5.16-6.54Zm0,0l-.2-3.27c-.25-4.19-1.79-5.95-5.06-5.75l-4.45.27.94,15.51,3.61-.22c3.44-.2,5.44-1.84,5.16-6.54Zm2.55,26.78l-.31-5.12c-.33-5.45-2.2-7.02-6.39-6.76l-4.11.25,1.1,18.02,5.28-.32c3.1-.18,4.69-1.71,4.43-6.07Zm448.58,4.02l-12.37,26.61,7.95,2.44,4.58-29-.16-.05Zm176.85,43.53c-2.88-.62-5.02.56-5.89,4.67l-6.7,31.38c-.88,4.11.6,6.05,3.47,6.67,2.88.61,5.02-.56,5.89-4.67l6.7-31.38c.88-4.11-.6-6.06-3.47-6.67Zm0,0c-2.88-.62-5.02.56-5.89,4.67l-6.7,31.38c-.88,4.11.6,6.05,3.47,6.67,2.88.61,5.02-.56,5.89-4.67l6.7-31.38c.88-4.11-.6-6.06-3.47-6.67Zm-176.85-43.53l-12.37,26.61,7.95,2.44,4.58-29-.16-.05Zm-448.58-4.02l-.31-5.12c-.33-5.45-2.2-7.02-6.39-6.76l-4.11.25,1.1,18.02,5.28-.32c3.1-.18,4.69-1.71,4.43-6.07Zm-2.55-26.78l-.2-3.27c-.25-4.19-1.79-5.95-5.06-5.75l-4.45.27.94,15.51,3.61-.22c3.44-.2,5.44-1.84,5.16-6.54Zm0,0l-.2-3.27c-.25-4.19-1.79-5.95-5.06-5.75l-4.45.27.94,15.51,3.61-.22c3.44-.2,5.44-1.84,5.16-6.54Zm2.55,26.78l-.31-5.12c-.33-5.45-2.2-7.02-6.39-6.76l-4.11.25,1.1,18.02,5.28-.32c3.1-.18,4.69-1.71,4.43-6.07Zm448.58,4.02l-12.37,26.61,7.95,2.44,4.58-29-.16-.05Zm176.85,43.53c-2.88-.62-5.02.56-5.89,4.67l-6.7,31.38c-.88,4.11.6,6.05,3.47,6.67,2.88.61,5.02-.56,5.89-4.67l6.7-31.38c.88-4.11-.6-6.06-3.47-6.67Zm0,0c-2.88-.62-5.02.56-5.89,4.67l-6.7,31.38c-.88,4.11.6,6.05,3.47,6.67,2.88.61,5.02-.56,5.89-4.67l6.7-31.38c.88-4.11-.6-6.06-3.47-6.67Zm-176.85-43.53l-12.37,26.61,7.95,2.44,4.58-29-.16-.05Zm-448.58-4.02l-.31-5.12c-.33-5.45-2.2-7.02-6.39-6.76l-4.11.25,1.1,18.02,5.28-.32c3.1-.18,4.69-1.71,4.43-6.07Zm-2.55-26.78l-.2-3.27c-.25-4.19-1.79-5.95-5.06-5.75l-4.45.27.94,15.51,3.61-.22c3.44-.2,5.44-1.84,5.16-6.54Zm0,0l-.2-3.27c-.25-4.19-1.79-5.95-5.06-5.75l-4.45.27.94,15.51,3.61-.22c3.44-.2,5.44-1.84,5.16-6.54Zm2.55,26.78l-.31-5.12c-.33-5.45-2.2-7.02-6.39-6.76l-4.11.25,1.1,18.02,5.28-.32c3.1-.18,4.69-1.71,4.43-6.07Zm448.58,4.02l-12.37,26.61,7.95,2.44,4.58-29-.16-.05Zm0,0l-12.37,26.61,7.95,2.44,4.58-29-.16-.05Zm-448.58-4.02l-.31-5.12c-.33-5.45-2.2-7.02-6.39-6.76l-4.11.25,1.1,18.02,5.28-.32c3.1-.18,4.69-1.71,4.43-6.07Zm-2.55-26.78l-.2-3.27c-.25-4.19-1.79-5.95-5.06-5.75l-4.45.27.94,15.51,3.61-.22c3.44-.2,5.44-1.84,5.16-6.54Zm0,0l-.2-3.27c-.25-4.19-1.79-5.95-5.06-5.75l-4.45.27.94,15.51,3.61-.22c3.44-.2,5.44-1.84,5.16-6.54Zm2.55,26.78l-.31-5.12c-.33-5.45-2.2-7.02-6.39-6.76l-4.11.25,1.1,18.02,5.28-.32c3.1-.18,4.69-1.71,4.43-6.07Zm0,0l-.31-5.12c-.33-5.45-2.2-7.02-6.39-6.76l-4.11.25,1.1,18.02,5.28-.32c3.1-.18,4.69-1.71,4.43-6.07Zm-2.55-26.78l-.2-3.27c-.25-4.19-1.79-5.95-5.06-5.75l-4.45.27.94,15.51,3.61-.22c3.44-.2,5.44-1.84,5.16-6.54Zm0,0l-.2-3.27c-.25-4.19-1.79-5.95-5.06-5.75l-4.45.27.94,15.51,3.61-.22c3.44-.2,5.44-1.84,5.16-6.54Zm2.55,26.78l-.31-5.12c-.33-5.45-2.2-7.02-6.39-6.76l-4.11.25,1.1,18.02,5.28-.32c3.1-.18,4.69-1.71,4.43-6.07Zm0,0l-.31-5.12c-.33-5.45-2.2-7.02-6.39-6.76l-4.11.25,1.1,18.02,5.28-.32c3.1-.18,4.69-1.71,4.43-6.07Zm-2.55-26.78l-.2-3.27c-.25-4.19-1.79-5.95-5.06-5.75l-4.45.27.94,15.51,3.61-.22c3.44-.2,5.44-1.84,5.16-6.54Zm0,0l-.2-3.27c-.25-4.19-1.79-5.95-5.06-5.75l-4.45.27.94,15.51,3.61-.22c3.44-.2,5.44-1.84,5.16-6.54Zm2.55,26.78l-.31-5.12c-.33-5.45-2.2-7.02-6.39-6.76l-4.11.25,1.1,18.02,5.28-.32c3.1-.18,4.69-1.71,4.43-6.07Zm0,0l-.31-5.12c-.33-5.45-2.2-7.02-6.39-6.76l-4.11.25,1.1,18.02,5.28-.32c3.1-.18,4.69-1.71,4.43-6.07Zm-2.55-26.78l-.2-3.27c-.25-4.19-1.79-5.95-5.06-5.75l-4.45.27.94,15.51,3.61-.22c3.44-.2,5.44-1.84,5.16-6.54Zm0,0l-.2-3.27c-.25-4.19-1.79-5.95-5.06-5.75l-4.45.27.94,15.51,3.61-.22c3.44-.2,5.44-1.84,5.16-6.54Zm2.55,26.78l-.31-5.12c-.33-5.45-2.2-7.02-6.39-6.76l-4.11.25,1.1,18.02,5.28-.32c3.1-.18,4.69-1.71,4.43-6.07Zm0,0l-.31-5.12c-.33-5.45-2.2-7.02-6.39-6.76l-4.11.25,1.1,18.02,5.28-.32c3.1-.18,4.69-1.71,4.43-6.07Zm-2.55-26.78l-.2-3.27c-.25-4.19-1.79-5.95-5.06-5.75l-4.45.27.94,15.51,3.61-.22c3.44-.2,5.44-1.84,5.16-6.54Z"/><path class="cls-1" d="m475.11,336.81s-65.33,8.61-92.71,18.12l-4.18,243.97s62.73-13.24,96.89-17.43v-36.25l-59.95,9.76.7-70.4,46.01-8.36v-34.16l-45.31,8.36-.7-69.71,59.25-9.76v-34.16Z"/><path class="cls-1" d="m1691.12,404.48s-69.72,8.2-97.1,17.71v256.65s62.94-15.46,97.1-29.7v-36.25l-59.95,9.76.67-67.19,46.04-11.58v-34.16l-45.31,8.36-.7-69.71,59.25-9.76v-34.16Z"/><polygon class="cls-1" points="497.42 327.75 562.24 445.55 627.77 313.11 627.77 567.54 593.61 567.54 595 452.52 562.59 515.96 530.88 456.01 529.48 574.51 493.93 577 497.42 327.75"/><path class="cls-1" d="m704.01,313.11c-31.47,0-56.98,57.07-56.98,127.47s25.51,127.49,56.98,127.49,56.99-57.07,56.99-127.49-25.51-127.47-56.99-127.47Zm-.45,227.49c-13.74,0-24.87-42.81-24.87-95.61s11.13-95.6,24.87-95.6,24.88,42.81,24.88,95.6-11.13,95.61-24.88,95.61Z"/><path class="cls-1" d="m1401.36,413.12c-31.47,0-56.98,57.07-56.98,127.47s25.51,127.49,56.98,127.49,56.99-57.07,56.99-127.49-25.51-127.47-56.99-127.47Zm-.45,227.49c-13.74,0-24.87-42.81-24.87-95.61s11.13-95.61,24.87-95.61,24.88,42.81,24.88,95.61-11.13,95.61-24.88,95.61Z"/><polygon class="cls-1" points="780.9 304.85 855.11 453.29 855.11 325.81 886.54 328.43 883.93 589.47 813.2 440.59 811.45 568.07 778.28 565.92 780.9 304.85"/><polygon class="cls-1" points="1586.5 421.27 1552.17 423.74 1519.7 559.82 1487.85 423.13 1454.45 421.27 1520.48 699.05 1586.5 421.27"/><path class="cls-1" d="m1294.44,519.31s37.75-24.83,30.55-69.91c-7.18-45.09-62.46-68.61-103.12-71.23l-2.84,254.25,34.48,9.58v-110.49s52.61-3.18,41.83,122.65l34.14,6.29s13.49-118.7-35.04-141.14Zm-40.95-19.34l2.3-86.86s33.03,8.92,34.13,43.44c1.11,34.51-36.43,43.42-36.43,43.42Z"/><path class="cls-1" d="m567.38,284.25l-4.03-31.33c-1.16-9,2.82-14.93,11.65-16.07,8.83-1.14,14.18,3.6,15.34,12.59l.79,6.17-8.66,1.11-.87-6.75c-.49-3.83-2.53-5.18-5.28-4.83-2.75.35-4.38,2.17-3.89,6l4.19,32.58c.49,3.83,2.52,5.1,5.27,4.74s4.39-2.09,3.9-5.92l-1.15-8.91,8.66-1.11,1.06,8.25c1.16,9-2.82,14.93-11.65,16.06-8.83,1.14-14.18-3.6-15.34-12.59Z"/><path class="cls-1" d="m616.52,233.13l9.2-.82,5.19,58.58-9.21.82-5.19-58.58Z"/><path class="cls-1" d="m662.49,238.14l-9.65.52-.45-8.39,28.52-1.53.45,8.39-9.65.52,2.69,50.33-9.23.49-2.69-50.33Z"/><path class="cls-1" d="m717.16,261.5l-11.63-33.62,9.83-.13,6.59,21.5h.17s6.01-21.68,6.01-21.68l8.99-.12-10.71,33.92.34,25.03-9.24.13-.34-25.03Z"/><path class="cls-1" d="m796.17,273.48l1.6-30.87c.49-9.4,5.71-14.51,14.78-14.04s13.73,6.1,13.24,15.49l-1.6,30.87c-.49,9.4-5.72,14.51-14.78,14.04-9.06-.47-13.73-6.1-13.24-15.49Zm18.76,1.56l1.66-32.05c.22-4.19-1.55-5.88-4.48-6.04-2.94-.15-4.86,1.35-5.08,5.54l-1.66,32.05c-.22,4.19,1.55,5.88,4.48,6.04,2.94.15,4.86-1.35,5.08-5.54Z"/><path class="cls-1" d="m855.13,232.24l24.34,2.22-.76,8.36-15.14-1.38-1.49,16.31,11.88,1.08-.76,8.36-11.88-1.08-2.33,25.51-9.2-.84,5.34-58.55Z"/></svg>